PathFileType	4	(X/Y/Z)	Walk2.trc
DataRate	CameraRate	NumFrames	NumMarkers	Units	OrigDataRate	OrigDataStartFrame	OrigNumFrames
200.000000	200.000000	8	68	mm	200.000000	737	862
Frame#	Times		LFHD		LowerBodyModelVer		RCAR		RWRU		LElbow		LTH2		RACR1		RUA1		RASI		RFA1		LACR1		LTH4		LTB1		LLFC		RTH2		LMT5		LUA1		LTB4		LTB3		LTB2		LToe		LMT1		RTH4		LASI		PELOrigin		LLMAL		RBHD		STRN		RLFC		CLAV		RTH3		LFA1		LWRU		RBack		LPSI		RMT1		RMT5		LCAR		RTH1		RTB2		RCAL		LTH1		C7		RLMAL		RFHD		LBHD		RToe		RPSI		LHJC		MidPelvis		OPelvis		RHJC		SACR		XPelvis		YPelvis		ZPelvis		LWRR		RTB1		RTB3		RTB4		RMMAL		RWRR		RElbow		LTH3		LMMAL		T10		LCAL		LElbowM
			X1	Y1	Z1	X2	Y2	Z2	X3	Y3	Z3	X4	Y4	Z4	X5	Y5	Z5	X6	Y6	Z6	X7	Y7	Z7	X8	Y8	Z8	X9	Y9	Z9	X10	Y10	Z10	X11	Y11	Z11	X12	Y12	Z12	X13	Y13	Z13	X14	Y14	Z14	X15	Y15	Z15	X16	Y16	Z16	X17	Y17	Z17	X18	Y18	Z18	X19	Y19	Z19	X20	Y20	Z20	X21	Y21	Z21	X22	Y22	Z22	X23	Y23	Z23	X24	Y24	Z24	X25	Y25	Z25	X26	Y26	Z26	X27	Y27	Z27	X28	Y28	Z28	X29	Y29	Z29	X30	Y30	Z30	X31	Y31	Z31	X32	Y32	Z32	X33	Y33	Z33	X34	Y34	Z34	X35	Y35	Z35	X36	Y36	Z36	X37	Y37	Z37	X38	Y38	Z38	X39	Y39	Z39	X40	Y40	Z40	X41	Y41	Z41	X42	Y42	Z42	X43	Y43	Z43	X44	Y44	Z44	X45	Y45	Z45	X46	Y46	Z46	X47	Y47	Z47	X48	Y48	Z48	X49	Y49	Z49	X50	Y50	Z50	X51	Y51	Z51	X52	Y52	Z52	X53	Y53	Z53	X54	Y54	Z54	X55	Y55	Z55	X56	Y56	Z56	X57	Y57	Z57	X58	Y58	Z58	X59	Y59	Z59	X60	Y60	Z60	X61	Y61	Z61	X62	Y62	Z62	X63	Y63	Z63	X64	Y64	Z64	X65	Y65	Z65	X66	Y66	Z66	X67	Y67	Z67	X68	Y68	Z68

737	3.685	440.45	1580.2	37.747	9	2014	4	407.55	792.26	417.11	361.09	840.44	432.09	229.73	1096.2	-223.18	436.36	668.17	-148.46	328.72	1370.5	257.71	308.37	1225.5	346.78	394.23	948.58	241.9	360.76	947.78	403.04	324.84	1372.2	-98.819	382.19	648.27	-166.58	489.52	358.59	-36.485	407.87	497.95	-126.23	330.7	620.53	227.93	604.16	64.383	-135.63	297.92	1230.7	-182.9	497.08	273.99	-48.215	511.79	189.79	-57.791	486.44	280.53	-108.63	661.83	101.9	-63.81	628.89	85.815	-55.321	273.97	631.32	245.27	392.71	969.57	-114.55	393.47	959.08	63.678	483.77	85.007	-118.72	278.62	1568.1	156.04	461.59	1220.4	85.304	238.13	454.92	209.68	398.87	1339.3	80.974	255.61	547.15	226.42	260.51	970.36	-269	211.74	863.34	-306.06	187.52	1307.6	188.37	159.79	989.03	-38.597	278.88	33.818	99.449	266.03	27.723	191.82	237.92	809.49	-313.95	305.94	705.81	265.58	228.19	265.1	187.74	89.39	30.433	137.13	361.03	728.39	-188.29	238.86	1414.6	96.962	146.35	67.534	180.29	433.86	1585.9	132.67	288.03	1559.9	20.431	325.66	31.193	110.41	146.65	986.36	94.397	298.45	861.83	-63.261	273.35	973.38	45.789	393.47	959.08	63.678	299.48	847.56	179.13	153.22	987.69	27.9	472.99	950.35	62.825	402.23	1038.5	68.316	393.81	954.37	143.54	268.41	846.96	-259.36	269.49	339.47	123.34	200.99	166.66	104.32	235.24	253.06	113.83	164.11	73.616	94.082	400.91	849.01	370.14	277.29	1062.8	389.54	406.45	566.81	-141.48	502.51	93.452	-36.283	180.97	1088.1	56.822	447.06	30.41	-70.263	228.7	1051.1	-123.22
738	3.69	445.12	1579.5	36.885	9	2014	4	412.51	792.39	417.3	366.01	840.57	432.2	232.66	1096	-223.42	439.88	666.47	-148.17	333.34	1370.2	256.97	313.45	1225.3	346.05	398.17	948.1	241.69	365.6	947.85	402.93	329.26	1371.6	-99.486	385.68	646.92	-166.7	495.7	359.24	-34.793	412.15	497.01	-125.49	334.14	619.96	227.86	616.14	66.217	-133.87	301.46	1230.2	-183.51	504.96	274.73	-46.737	521.16	190.76	-56.474	494.85	281.22	-107.22	672.93	104.75	-61.61	640.14	88.245	-53.45	277.48	630.62	245.22	397.71	968.77	-114.51	397.94	958.44	63.591	495.25	85.523	-117.75	283.38	1567.5	155.31	466.23	1219.9	85.364	241.13	454.54	209.49	403.47	1338.8	80.424	258.89	546.75	226.18	262.34	969.94	-269.43	212.57	863.27	-306.3	192.13	1307.1	187.72	164.61	988.5	-39.56	278.9	33.837	99.483	266.05	27.691	191.88	238.27	809.2	-314.32	309.41	705.34	265.42	229.72	264.81	187.76	89.429	30.738	137.14	365.09	727.19	-188.29	243.47	1414.1	96.28	146.49	67.735	180.31	438.62	1585.2	131.82	292.67	1559.3	19.686	325.77	31.132	110.49	151	985.96	93.39	303.28	861.24	-63.446	277.87	972.83	45.253	397.94	958.44	63.591	303.59	847.18	178.77	157.8	987.23	26.915	477.45	949.64	62.98	406.76	1037.8	68.188	398.04	953.8	143.46	269.36	846.48	-259.89	271.84	338.74	123.41	201.95	166.49	104.34	236.89	252.62	113.87	164.31	73.735	94.068	405.83	849.05	370.23	282.14	1062.8	389.26	409.32	565.22	-141.64	513.36	94.267	-35.153	185.47	1087.5	56.102	459.1	30.22	-69.455	231.73	1050.8	-123.37
739	3.695	449.78	1578.8	35.989	9	2014	4	417.41	792.49	417.46	370.87	840.68	432.28	235.6	1095.7	-223.68	443.48	664.83	-147.88	337.94	1369.9	256.2	318.49	1225	345.3	402.14	947.6	241.42	370.39	947.9	402.77	333.69	1370.9	-100.19	389.29	645.59	-166.88	501.81	359.79	-33.173	416.71	496.13	-124.79	337.62	619.36	227.77	627.33	67.839	-132.06	305	1229.7	-184.14	512.57	275.37	-45.256	530.07	191.63	-55.098	502.95	281.83	-105.8	683.32	107.26	-59.406	650.67	90.403	-51.558	281.06	629.91	245.09	402.78	967.95	-114.49	402.46	957.78	63.469	506.01	86.015	-116.66	288.13	1566.9	154.54	470.87	1219.4	85.373	244.17	454.15	209.28	408.07	1338.2	79.831	262.22	546.33	225.94	264.23	969.49	-269.86	213.5	863.17	-306.52	196.73	1306.7	187.01	169.45	987.95	-40.534	278.91	33.851	99.515	266.06	27.662	191.93	238.74	808.87	-314.67	312.93	704.85	265.23	231.28	264.51	187.78	89.471	31.063	137.15	369.21	725.99	-188.35	248.07	1413.6	95.55	146.64	67.947	180.32	443.36	1584.5	130.94	297.31	1558.7	18.901	325.86	31.071	110.55	155.37	985.54	92.371	308.18	860.63	-63.663	282.43	972.26	44.694	402.46	957.78	63.469	307.74	846.79	178.36	162.41	986.74	25.919	481.97	948.92	63.106	411.33	1037.2	68.024	402.32	953.21	143.34	270.39	845.97	-260.4	274.21	337.99	123.46	202.91	166.31	104.35	238.56	252.15	113.91	164.52	73.867	94.061	410.7	849.07	370.29	286.96	1062.7	388.95	412.37	563.67	-141.83	523.54	95.037	-33.913	190	1086.9	55.36	470.36	30.09	-68.491	234.84	1050.5	-123.54
740	3.7	454.43	1578.1	35.06	9	2014	4	422.25	792.58	417.6	375.68	840.77	432.32	238.55	1095.3	-223.95	447.2	663.3	-147.59	342.52	1369.6	255.39	323.46	1224.8	344.53	406.15	947.09	241.11	375.14	947.92	402.57	338.14	1370.2	-100.93	393.05	644.3	-167.11	507.87	360.23	-31.633	421.59	495.3	-124.11	341.14	618.75	227.67	637.72	69.204	-130.18	308.54	1229.1	-184.79	519.89	275.89	-43.781	538.49	192.36	-53.664	510.74	282.3	-104.37	693.01	109.38	-57.189	660.45	92.253	-49.636	284.7	629.19	244.89	407.92	967.11	-114.49	407.03	957.1	63.312	516.04	86.439	-115.44	292.86	1566.3	153.73	475.52	1218.8	85.322	247.25	453.74	209.07	412.67	1337.6	79.194	265.6	545.89	225.7	266.19	969.01	-270.29	214.53	863.02	-306.74	201.32	1306.2	186.25	174.3	987.37	-41.516	278.92	33.861	99.546	266.07	27.634	191.97	239.32	808.52	-314.99	316.53	704.34	265.03	232.87	264.21	187.78	89.518	31.411	137.17	373.41	724.81	-188.47	252.67	1413	94.771	146.8	68.17	180.33	448.08	1583.9	130.02	301.93	1558.1	18.076	325.95	31.011	110.61	159.76	985.1	91.344	313.16	860.01	-63.909	287.03	971.67	44.113	407.03	957.1	63.312	311.96	846.39	177.9	167.03	986.24	24.914	486.54	948.18	63.203	415.95	1036.5	67.825	406.64	952.61	143.18	271.52	845.43	-260.88	276.6	337.22	123.51	203.88	166.14	104.37	240.24	251.68	113.94	164.73	74.014	94.062	415.51	849.06	370.31	291.74	1062.7	388.59	415.64	562.19	-142.03	533.04	95.717	-32.564	194.54	1086.2	54.596	480.81	29.983	-67.372	238.02	1050.1	-123.73
741	3.705	459.08	1577.4	34.096	9	2014	4	427.03	792.65	417.69	380.42	840.84	432.33	241.52	1094.9	-224.24	451.05	661.9	-147.3	347.08	1369.3	254.55	328.39	1224.5	343.74	410.21	946.57	240.75	379.85	947.93	402.34	342.6	1369.5	-101.71	397	643.06	-167.38	513.87	360.53	-30.179	426.78	494.54	-123.45	344.7	618.11	227.55	647.32	70.276	-128.23	312.09	1228.5	-185.48	526.94	276.28	-42.317	546.42	192.93	-52.179	518.19	282.63	-102.95	701.99	111.08	-54.949	669.48	93.758	-47.678	288.4	628.48	244.64	413.11	966.25	-114.51	411.66	956.41	63.121	525.33	86.753	-114.09	297.58	1565.6	152.88	480.17	1218.3	85.203	250.37	453.31	208.86	417.27	1337	78.509	269.02	545.43	225.45	268.2	968.49	-270.72	215.66	862.83	-306.94	205.9	1305.7	185.43	179.16	986.78	-42.505	278.93	33.866	99.576	266.07	27.608	192.01	240.03	808.13	-315.29	320.18	703.82	264.79	234.49	263.89	187.78	89.567	31.786	137.19	377.68	723.64	-188.65	257.26	1412.4	93.943	146.97	68.403	180.34	452.79	1583.2	129.06	306.56	1557.4	17.209	326.04	30.951	110.67	164.18	984.63	90.312	318.2	859.37	-64.184	291.66	971.06	43.512	411.66	956.41	63.121	316.22	845.99	177.39	171.67	985.7	23.904	491.15	947.44	63.272	420.61	1035.8	67.591	411	951.99	143	272.73	844.86	-261.33	279.01	336.42	123.55	204.87	165.96	104.39	241.94	251.19	113.97	164.95	74.178	94.072	420.27	849.03	370.29	296.49	1062.7	388.19	419.21	560.8	-142.22	541.86	96.269	-31.108	199.1	1085.6	53.813	490.45	29.868	-66.107	241.27	1049.8	-123.94
742	3.71	463.71	1576.7	33.098	9	2014	4	431.76	792.69	417.76	385.1	840.89	432.31	244.52	1094.5	-224.55	455.07	660.66	-146.99	351.63	1368.9	253.66	333.25	1224.3	342.93	414.3	946.04	240.34	384.5	947.91	402.06	347.07	1368.7	-102.54	401.16	641.87	-167.65	519.81	360.69	-28.815	432.29	493.83	-122.78	348.31	617.44	227.4	656.12	71.024	-126.2	315.66	1227.9	-186.19	533.69	276.51	-40.87	553.87	193.31	-50.647	525.3	282.77	-101.54	710.26	112.34	-52.673	677.77	94.892	-45.676	292.16	627.76	244.33	418.35	965.37	-114.55	416.33	955.71	62.898	533.89	86.923	-112.63	302.28	1565	151.98	484.81	1217.7	85.01	253.53	452.87	208.65	421.87	1336.4	77.777	272.48	544.94	225.21	270.28	967.94	-271.16	216.89	862.59	-307.14	210.47	1305.1	184.57	184.04	986.16	-43.497	278.94	33.867	99.607	266.07	27.583	192.05	240.85	807.71	-315.57	323.91	703.27	264.53	236.14	263.57	187.77	89.618	32.19	137.22	382.03	722.47	-188.88	261.84	1411.7	93.064	147.15	68.648	180.33	457.49	1582.4	128.07	311.17	1556.7	16.301	326.11	30.891	110.72	168.61	984.13	89.277	323.3	858.71	-64.485	296.33	970.43	42.894	416.33	955.71	62.898	320.54	845.57	176.84	176.33	985.15	22.89	495.81	946.67	63.314	425.32	1035.1	67.324	415.41	951.36	142.77	274.03	844.26	-261.75	281.44	335.6	123.57	205.87	165.79	104.41	243.65	250.7	113.99	165.17	74.36	94.091	424.97	848.97	370.23	301.19	1062.6	387.76	423.13	559.54	-142.37	550	96.659	-29.549	203.68	1084.8	53.01	499.27	29.716	-64.704	244.59	1049.4	-124.18
743	3.715	468.34	1575.9	32.067	9	2014	4	436.42	792.72	417.79	389.72	840.92	432.25	247.53	1094.1	-224.88	459.27	659.61	-146.66	356.15	1368.5	252.74	338.07	1224	342.1	418.43	945.5	239.9	389.11	947.86	401.75	351.56	1367.9	-103.4	405.55	640.76	-167.91	525.7	360.69	-27.54	438.09	493.18	-122.12	351.96	616.75	227.24	664.15	71.427	-124.1	319.24	1227.3	-186.92	540.16	276.56	-39.444	560.84	193.48	-49.075	532.07	282.72	-100.15	717.84	113.14	-50.352	685.32	95.635	-43.625	295.96	627.04	243.99	423.65	964.47	-114.61	421.04	954.98	62.644	541.71	86.925	-111.06	306.97	1564.3	151.04	489.45	1217.1	84.737	256.73	452.4	208.43	426.47	1335.8	76.996	275.98	544.43	224.97	272.42	967.35	-271.6	218.23	862.3	-307.32	215.03	1304.6	183.66	188.93	985.51	-44.493	278.95	33.864	99.64	266.07	27.56	192.08	241.79	807.24	-315.83	327.7	702.69	264.25	237.81	263.24	187.76	89.671	32.627	137.26	386.48	721.33	-189.15	266.41	1411.1	92.133	147.34	68.905	180.33	462.18	1581.7	127.05	315.77	1556.1	15.352	326.17	30.83	110.77	173.07	983.61	88.243	328.46	858.04	-64.811	301.02	969.77	42.26	421.04	954.98	62.644	324.91	845.13	176.25	181	984.56	21.875	500.52	945.9	63.328	430.08	1034.4	67.026	419.87	950.71	142.52	275.43	843.62	-262.16	283.89	334.75	123.6	206.87	165.63	104.44	245.38	250.19	114.02	165.4	74.561	94.119	429.62	848.89	370.13	305.85	1062.5	387.28	427.44	558.4	-142.43	557.45	96.86	-27.894	208.27	1084.1	52.189	507.26	29.506	-63.178	247.97	1048.9	-124.44
744	3.72	472.96	1575.2	31.002	9	2014	4	441.02	792.71	417.8	394.26	840.92	432.16	250.58	1093.6	-225.24	463.69	658.75	-146.29	360.65	1368.1	251.79	342.83	1223.8	341.25	422.6	944.94	239.41	393.67	947.8	401.4	356.06	1367.1	-104.31	410.22	639.72	-168.13	531.53	360.52	-26.353	444.18	492.59	-121.45	355.65	616.04	227.06	671.42	71.47	-121.92	322.85	1226.6	-187.68	546.35	276.43	-38.042	567.35	193.43	-47.469	538.49	282.47	-98.778	724.74	113.46	-47.976	692.15	95.972	-41.522	299.81	626.31	243.62	428.99	963.55	-114.69	425.8	954.24	62.362	548.82	86.742	-109.4	311.64	1563.6	150.06	494.09	1216.5	84.382	259.97	451.92	208.22	431.07	1335.2	76.165	279.51	543.9	224.73	274.62	966.73	-272.05	219.67	861.96	-307.5	219.57	1304	182.69	193.83	984.84	-45.489	278.97	33.859	99.673	266.07	27.539	192.11	242.85	806.74	-316.07	331.56	702.1	263.95	239.51	262.91	187.74	89.727	33.101	137.3	391.04	720.2	-189.46	270.97	1410.4	91.15	147.54	69.176	180.32	466.85	1580.9	125.99	320.37	1555.4	14.362	326.22	30.767	110.81	177.55	983.05	87.21	333.67	857.34	-65.16	305.74	969.09	41.611	425.8	954.24	62.362	329.33	844.68	175.63	185.69	983.94	20.86	505.27	945.11	63.316	434.87	1033.6	66.698	424.36	950.04	142.24	276.93	842.94	-262.54	286.36	333.88	123.61	207.89	165.46	104.47	247.12	249.67	114.04	165.64	74.781	94.158	434.21	848.78	370	310.47	1062.4	386.77	432.18	557.42	-142.39	564.23	96.852	-26.151	212.89	1083.3	51.352	514.45	29.225	-61.545	251.42	1048.5	-124.74
